<?xml version="1.0" standalone="no"?>
<!DOCTYPE svg PUBLIC "-//W3C//DTD SVG 20010904//EN"
 "http://www.w3.org/TR/2001/REC-SVG-20010904/DTD/svg10.dtd">
<svg version="1.0" xmlns="http://www.w3.org/2000/svg"
 width="260.000000pt" height="260.000000pt" viewBox="0 0 260.000000 260.000000"
 preserveAspectRatio="xMidYMid meet">
<metadata>
Created by potrace 1.11, written by Peter Selinger 2001-2013
</metadata>
<g transform="translate(0.000000,260.000000) scale(0.100000,-0.100000)"
fill="#000000" stroke="none">
<path d="M0 1300 l0 -1300 1300 0 1300 0 0 390 0 390 -139 0 -140 0 -20 55
c-12 31 -21 60 -21 66 0 6 -58 8 -156 7 l-157 -3 -21 -60 -21 -60 -143 -3
c-119 -2 -142 0 -142 12 0 8 84 232 186 498 102 266 195 507 206 536 l20 53
71 -3 72 -3 118 -310 c65 -170 156 -409 202 -530 l84 -220 1 893 0 892 -1300
0 -1300 0 0 -1300z m336 340 c97 -126 180 -227 184 -225 4 2 85 106 181 230
l174 225 195 -2 195 -3 63 -185 c34 -102 73 -235 85 -297 l23 -112 28 127 c15
70 53 204 84 297 l57 170 148 3 c96 2 147 -1 147 -8 0 -9 -364 -992 -396
-1068 -13 -33 -14 -33 -71 -30 l-57 3 -195 519 -196 519 -3 -512 -2 -511 -140
0 -140 0 -2 237 -3 237 -80 -107 c-56 -76 -85 -107 -100 -107 -14 1 -45 35
-102 112 l-83 112 0 -242 0 -242 -135 0 -135 0 0 545 0 545 49 0 50 0 177
-230z"/>
<path d="M2086 1282 c-16 -64 -31 -123 -33 -129 -3 -10 14 -13 67 -13 70 0 72
1 66 23 -4 12 -19 70 -34 129 -15 59 -29 108 -32 108 -3 0 -18 -53 -34 -118z"/>
</g>
</svg>
