<?xml version="1.0" standalone="no"?>
<!DOCTYPE svg PUBLIC "-//W3C//DTD SVG 20010904//EN"
 "http://www.w3.org/TR/2001/REC-SVG-20010904/DTD/svg10.dtd">
<svg version="1.0" xmlns="http://www.w3.org/2000/svg"
 width="260.000000pt" height="260.000000pt" viewBox="0 0 260.000000 260.000000"
 preserveAspectRatio="xMidYMid meet">
<metadata>
Created by potrace 1.11, written by Peter Selinger 2001-2013
</metadata>
<g transform="translate(0.000000,260.000000) scale(0.100000,-0.100000)"
fill="#000000" stroke="none">
<path d="M1812 1201 c-117 -303 -212 -553 -212 -556 0 -3 68 -5 150 -5 89 0
150 4 150 10 0 5 9 34 21 65 l21 56 150 -3 151 -3 21 -60 21 -60 148 -3 c139
-2 148 -1 143 15 -3 10 -98 259 -210 553 l-203 535 -70 3 -70 3 -211 -550z
m309 -59 c15 -59 30 -115 34 -124 6 -16 0 -18 -65 -18 -65 0 -71 2 -65 18 4 9
19 65 33 124 15 60 29 108 32 108 3 0 17 -49 31 -108z"/>
<path d="M90 1190 l0 -550 135 0 135 0 2 237 3 237 84 -112 c48 -65 90 -112
100 -112 9 1 53 50 99 112 l82 112 0 -237 0 -237 140 0 140 0 2 510 3 510 195
-520 195 -520 61 0 61 0 201 540 c111 297 202 547 202 555 0 13 -23 15 -148
15 l-147 0 -57 -172 c-57 -173 -76 -240 -99 -353 l-12 -60 -19 95 c-10 52 -48
183 -84 291 l-64 196 -193 6 c-105 3 -195 3 -198 1 -3 -2 -86 -107 -184 -233
l-177 -231 -143 185 c-79 102 -160 208 -181 235 -36 48 -40 50 -86 50 l-48 0
0 -550z"/>
</g>
</svg>
